<?xml version="1.0" encoding="UTF-8"?><svg id="_Слой_3" xmlns="http://www.w3.org/2000/svg" xmlns:xlink="http://www.w3.org/1999/xlink" viewBox="0 0 2032.97 800"><defs><style>.cls-1{fill:url(#_Безымянный_градиент_794-2);}.cls-2{fill:url(#_Безымянный_градиент_842-7);}.cls-3{fill:url(#_Безымянный_градиент_861);}.cls-4{fill:url(#_Безымянный_градиент_794);}.cls-5{fill:url(#_Безымянный_градиент_842-6);}.cls-6{fill:url(#_Безымянный_градиент_856-5);}.cls-7{fill:url(#_Безымянный_градиент_856);}.cls-8{letter-spacing:-.02em;}.cls-9{fill:url(#_Безымянный_градиент_842-3);}.cls-10{fill:url(#_Безымянный_градиент_664);}.cls-11{fill:url(#_Безымянный_градиент_842-5);}.cls-12{fill:url(#_Безымянный_градиент_842-4);}.cls-13{fill:url(#_Безымянный_градиент_856-4);}.cls-14{fill:url(#_Безымянный_градиент_842);}.cls-15{fill:url(#_Безымянный_градиент_794-10);}.cls-16{fill:url(#_Безымянный_градиент_794-7);}.cls-17{fill:url(#_Безымянный_градиент_794-3);}.cls-18{fill:url(#_Безымянный_градиент_861-3);}.cls-19{fill:url(#_Безымянный_градиент_842-8);}.cls-20{fill:url(#_Безымянный_градиент_856-3);}.cls-21{fill:url(#_Безымянный_градиент_794-5);}.cls-22{fill:url(#_Безымянный_градиент_861-2);}.cls-23{fill:url(#_Безымянный_градиент_861-5);}.cls-24{fill:url(#_Безымянный_градиент_794-8);}.cls-25{letter-spacing:-.03em;}.cls-26{font-family:Montserrat-Black, Montserrat;font-size:416.22px;font-weight:800;}.cls-27{fill:url(#_Безымянный_градиент_861-4);}.cls-28{fill:url(#_Безымянный_градиент_794-4);}.cls-29{fill:url(#_Безымянный_градиент_856-2);}.cls-30{fill:url(#_Безымянный_градиент_856-6);}.cls-31{fill:url(#_Безымянный_градиент_842-2);}.cls-32{fill:url(#_Безымянный_градиент_794-9);}.cls-33{fill:url(#_Безымянный_градиент_794-6);}</style><linearGradient id="_Безымянный_градиент_664" x1="803.67" y1="207.38" x2="1069.84" y2="207.38" gradientUnits="userSpaceOnUse"><stop offset="0" stop-color="#540055"/><stop offset="1" stop-color="#ff0056"/></linearGradient><linearGradient id="_Безымянный_градиент_794" x1="833.01" y1="552.47" x2="1069.84" y2="552.47" gradientUnits="userSpaceOnUse"><stop offset="0" stop-color="red"/><stop offset="1" stop-color="#ffc600"/></linearGradient><linearGradient id="_Безымянный_градиент_842" x1="275.81" y1="585.34" x2="446.55" y2="585.34" gradientUnits="userSpaceOnUse"><stop offset="0" stop-color="#540055"/><stop offset="1" stop-color="#ff0056"/></linearGradient><linearGradient id="_Безымянный_градиент_794-2" x1="336.53" y1="769.52" x2="343.19" y2="657.52" xlink:href="#_Безымянный_градиент_794"/><linearGradient id="_Безымянный_градиент_856" x1="275.81" y1="417.12" x2="346.03" y2="417.12" gradientUnits="userSpaceOnUse"><stop offset="0" stop-color="#0000d4"/><stop offset="1" stop-color="#2aa8ff"/></linearGradient><linearGradient id="_Безымянный_градиент_842-2" x1="428.52" y1="414.08" x2="367.63" y2="468.75" xlink:href="#_Безымянный_градиент_842"/><linearGradient id="_Безымянный_градиент_794-3" x1="361.59" y1="388.49" x2="646.92" y2="388.49" xlink:href="#_Безымянный_градиент_794"/><linearGradient id="_Безымянный_градиент_856-2" x1="729.34" y1="207.58" x2="661.34" y2="440.92" xlink:href="#_Безымянный_градиент_856"/><linearGradient id="_Безымянный_градиент_856-3" x1="506.6" y1="439.75" x2="489.93" y2="571.08" xlink:href="#_Безымянный_градиент_856"/><linearGradient id="_Безымянный_градиент_842-3" x1="517.92" y1="645.79" x2="641.25" y2="645.79" xlink:href="#_Безымянный_градиент_842"/><linearGradient id="_Безымянный_градиент_794-4" x1="576.02" y1="783.77" x2="582.68" y2="671.77" xlink:href="#_Безымянный_градиент_794"/><linearGradient id="_Безымянный_градиент_842-4" x1="692.66" y1="368.06" x2="761.03" y2="368.06" xlink:href="#_Безымянный_градиент_842"/><linearGradient id="_Безымянный_градиент_861" x1="233.14" y1="425.22" x2="289.35" y2="425.22" gradientUnits="userSpaceOnUse"><stop offset="0" stop-color="#056a00"/><stop offset="1" stop-color="#00c816"/></linearGradient><linearGradient id="_Безымянный_градиент_794-5" x1="84.7" y1="443.12" x2="277.86" y2="443.12" xlink:href="#_Безымянный_градиент_794"/><linearGradient id="_Безымянный_градиент_861-2" x1="3.23" y1="428.01" x2="213.37" y2="428.01" xlink:href="#_Безымянный_градиент_861"/><linearGradient id="_Безымянный_градиент_842-5" x1="192.03" y1="508.53" x2="300.5" y2="508.53" xlink:href="#_Безымянный_градиент_842"/><linearGradient id="_Безымянный_градиент_842-6" x1="72.51" y1="321.12" x2="312.51" y2="237.12" xlink:href="#_Безымянный_градиент_842"/><linearGradient id="_Безымянный_градиент_856-4" x1="333.26" y1="228.46" x2="410.11" y2="228.46" xlink:href="#_Безымянный_градиент_856"/><linearGradient id="_Безымянный_градиент_842-7" x1="350.36" y1="188.18" x2="504.72" y2="188.18" xlink:href="#_Безымянный_градиент_842"/><linearGradient id="_Безымянный_градиент_794-6" x1="350.36" y1="213.41" x2="441.67" y2="213.41" xlink:href="#_Безымянный_градиент_794"/><linearGradient id="_Безымянный_градиент_842-8" x1="409.77" y1="251.06" x2="530.01" y2="251.06" xlink:href="#_Безымянный_градиент_842"/><linearGradient id="_Безымянный_градиент_861-3" x1="409.77" y1="216.72" x2="504.72" y2="216.72" xlink:href="#_Безымянный_градиент_861"/><linearGradient id="_Безымянный_градиент_794-7" x1="409.77" y1="270.45" x2="515.71" y2="270.45" xlink:href="#_Безымянный_градиент_794"/><linearGradient id="_Безымянный_градиент_794-8" x1="383.36" y1="119.42" x2="473.97" y2="119.42" xlink:href="#_Безымянный_градиент_794"/><linearGradient id="_Безымянный_градиент_856-5" x1="385.05" y1="168.78" x2="512.28" y2="168.78" xlink:href="#_Безымянный_градиент_856"/><linearGradient id="_Безымянный_градиент_861-4" x1="353.94" y1="106.39" x2="450.63" y2="106.39" xlink:href="#_Безымянный_градиент_861"/><linearGradient id="_Безымянный_градиент_794-9" x1="541.59" y1="251.06" x2="576.25" y2="251.06" xlink:href="#_Безымянный_градиент_794"/><linearGradient id="_Безымянный_градиент_861-5" x1="555.48" y1="242.56" x2="664.81" y2="242.56" xlink:href="#_Безымянный_градиент_861"/><linearGradient id="_Безымянный_градиент_856-6" x1="662.48" y1="233.84" x2="721.81" y2="233.84" xlink:href="#_Безымянный_градиент_856"/><linearGradient id="_Безымянный_градиент_794-10" x1="606.03" y1="286.45" x2="725.81" y2="286.45" xlink:href="#_Безымянный_градиент_794"/></defs><text class="cls-26" transform="translate(1014.51 361.66)"><tspan class="cls-8"><tspan x="0" y="0">kill</tspan></tspan><tspan class="cls-8" x="0" y="332.33">o</tspan><tspan class="cls-25" x="272.2" y="332.33">r</tspan><tspan class="cls-8" x="449.93" y="332.33">ge</tspan></text><path class="cls-10" d="m860.83,353.54c-23.2-5.49-42.25-12.87-57.16-22.15l32.06-72.56c14.06,8.16,29.8,14.7,47.25,19.62,17.43,4.93,34.17,7.38,50.19,7.38,13.78,0,23.62-1.33,29.53-4.01,5.91-2.67,8.86-6.68,8.86-12.02,0-6.18-3.87-10.82-11.6-13.92-7.74-3.09-20.46-6.47-38.18-10.13-22.78-4.78-41.76-9.91-56.95-15.4-15.18-5.48-28.41-14.48-39.65-27-11.25-12.51-16.87-29.46-16.87-50.83,0-18.56,5.2-35.43,15.61-50.62,10.4-15.19,25.94-27.13,46.61-35.86,20.67-8.71,45.77-13.08,75.3-13.08,20.25,0,40.14,2.18,59.69,6.54,19.54,4.36,36.76,10.76,51.67,19.19l-29.95,72.13c-28.97-14.62-56.39-21.93-82.26-21.93s-38.39,6.19-38.39,18.56c0,5.91,3.8,10.34,11.39,13.29,7.59,2.95,20.1,6.12,37.54,9.49,22.49,4.22,41.48,9.07,56.94,14.55,15.47,5.48,28.9,14.42,40.29,26.79,11.39,12.38,17.09,29.25,17.09,50.62,0,18.56-5.21,35.37-15.61,50.41-10.41,15.05-25.94,27-46.62,35.86-20.67,8.86-45.77,13.29-75.3,13.29-24.47,0-48.3-2.74-71.5-8.22Z"/><path class="cls-4" d="m931.24,480.88v49.94h121.53v74.08h-121.53v93.23h-98.23v-291.35h236.83v74.09h-138.6Z"/><path class="cls-14" d="m316.7,642.45l83.11-9.78s-.44-11.56-7.56-20.89c0,0,46.22,24.44,40.89,64,0,0,26.22-15.56,5.33-76.89l-162.67-104c3.61,3.27,73.02,67.66,53.11,125.89-2.28,6.67-6.01,14.09-12.22,21.67Z"/><path class="cls-1" d="m316.7,642.45s-6.67,9.33-12,12h-8.67c-5.52,0-10,4.48-10,10v62.67c0,5.52,4.48,10,10,10h63.33s-.44-19.17,25.33-55.56c0,0,21.26-30.01,15.11-48.89-8.23-2.59-21.1-5.52-36.89-4.56-21.82,1.33-37.98,9.42-46.22,14.33Z"/><path class="cls-7" d="m275.81,494.9c15.3-21.98,32.17-50.24,46.78-84.78,10.9-25.77,18.31-49.79,23.44-70.78h-46.04c-5.15,0-9.46,3.91-9.95,9.03l-14.23,146.52Z"/><path class="cls-31" d="m275.81,494.9l292.78-57.78-207-97.78h-15.56c-5.13,20.99-12.55,45.01-23.44,70.78-14.61,34.54-31.48,62.8-46.78,84.78Z"/><path class="cls-17" d="m361.59,339.34h285.33l-78.33,97.78c-24.96,1.56-102.26,3.08-165.67-50.33-18.5-15.59-31.81-32.47-41.33-47.44Z"/><path class="cls-29" d="m568.59,437.12l9.34-2,173.43-5.68c5.4-.18,9.68-4.6,9.68-9.99v-22.66c-12.82-10.77-25.64-21.54-38.47-32.32-9.97-8.38-19.94-16.75-29.91-25.13h-45.69c-13.61,8.18-34.68,23.23-53.05,48.44-13.46,18.47-21,36.27-25.33,49.33Z"/><path class="cls-20" d="m275.81,494.9c34.09-13.72,73.94-27.14,119.11-37.78,69.75-16.43,132.3-21.57,183-22l153.7-5.04s-131.7,11.04-159.7,93.71c0,0-17.33,47.67,11,84.67-1.13,2.59-7.43,16.32-22.68,21.64-14.36,5.01-30.97.57-42.32-11.3-.89-1.41-2.15-2.97-3.67-4.67-2.17-2.42-5-5-7.67-5.67,0,0,6,17,3.67,28.33,0,0-35.33-19.67-37-55.67-1.06-5.81-1.34-12.59.25-19.83,6.6-30.01,39.88-42.39,43.64-43.72-3.85.33-52.34,5.31-71.53,44.49-6.95,14.18-7.63,27.9-7.14,36.84-18.28-6.94-38.16-15.77-58.89-27.11-44.66-24.42-78.85-52.56-103.78-76.89Z"/><path class="cls-9" d="m517.92,618.79s12.67,16,13.33,26.67l110,37.67v-20c0-3.92-2.28-7.48-5.85-9.1-11.84-5.36-38.71-19.8-52.48-45.57-5.5,3.78-15.13,9.36-28.33,12-16.42,3.28-29.89.33-36.67-1.67Z"/><path class="cls-28" d="m531.25,645.45s9.33,37.33-13.33,74.67c0,0,40-32.67,36.67-55,0,0,33.33,41,28.33,72h48.33c5.52,0,10-4.48,10-10v-44l-110-37.67Z"/><path class="cls-12" d="m692.66,339.34c1.26,7.06,4,16.44,10.26,25.78,18.68,27.85,52.49,31.2,58.11,31.67v-47.44c0-5.52-4.48-10-10-10h-58.37Z"/><path class="cls-3" d="m289.35,355.54h-56.2v17.36s55.78,44.22,42.67,122l13.54-139.36Z"/><path class="cls-21" d="m233.14,372.9h-19.78c-20.43,11.36-44.85,27.14-70.13,48.82-25.07,21.5-44.26,43.06-58.54,61.4,9,5.27,19.47,10.53,31.42,15.19,19.42,7.58,46.25,15.14,75.92,15.03l83.78-18.44s16.22-72.89-42.67-122Z"/><path class="cls-22" d="m213.37,372.9H3.23s16.8,76.67,81.47,110.22c14.83-19.05,34.92-41.51,61.33-63.78,24.16-20.37,47.49-35.42,67.33-46.44Z"/><path class="cls-11" d="m275.81,494.9l-83.78,18.44c15.83-1.05,29.24-1.06,39.41-.78,14.88.4,30.75.91,50.98,5.1,7.61,1.58,13.83,3.26,18.08,4.5-3.55-4.6-7.55-9.43-12.04-14.37-4.31-4.75-8.56-9.04-12.65-12.89Z"/><path class="cls-5" d="m171.33,322.62l161.93-63.69,17.11-60.93,18.83-24.36-222.11,87.36s-48.04,8.39-69.17,22.67c-21.13,14.28-18.05,67.04,27.09,68.86,0,0,35.33-7.93,66.32-29.91Z"/><polygon class="cls-13" points="350.36 197.99 333.26 258.93 410.11 228.7 350.36 197.99"/><polygon class="cls-2" points="350.36 197.99 369.2 173.63 385.54 167.21 504.72 209.16 350.36 197.99"/><polygon class="cls-33" points="350.36 197.99 409.77 228.83 409.77 228.83 409.77 228.83 441.67 204.6 350.36 197.99"/><polygon class="cls-19" points="409.77 228.83 515.71 292.96 530.01 273.48 504.72 209.16 409.77 228.83"/><polygon class="cls-18" points="409.77 228.83 441.67 204.6 504.72 209.16 409.77 228.83"/><polygon class="cls-16" points="409.77 228.83 440.44 306.8 467.11 312.07 515.71 292.96 409.77 228.83"/><polygon class="cls-24" points="385.54 167.21 383.36 161.69 450.63 71.64 473.97 130.99 385.54 167.21"/><polygon class="cls-6" points="385.54 167.21 504.72 209.16 498.7 193.86 504.28 191.66 512.28 171.32 498.45 136.17 480.59 128.39 385.05 165.97 385.54 167.21"/><polygon class="cls-27" points="383.36 161.69 353.94 86.86 378.57 57.66 409.28 45.58 442.01 49.72 450.63 71.64 385.54 167.21 383.36 161.69"/><polygon class="cls-32" points="541.59 199.98 541.59 302.14 576.25 206.55 541.59 199.98"/><polygon class="cls-23" points="555.48 308.01 664.81 176.23 644.48 254.45 573.59 308.9 555.48 308.01"/><polygon class="cls-30" points="662.48 252.12 662.48 263.08 721.81 228.46 714.7 204.6 662.48 252.12"/><polygon class="cls-15" points="606.03 315.34 606.03 325.79 719.37 325.79 666.25 308.9 725.81 247.12 606.03 315.34"/></svg>